# xmcd
#
# Track frame offsets:
#	150
#	14865
#	25469
#	35891
#	47684
#	62372
#	85258
#	97234
#	115700
#	130950
#	140527
#	158408
#	176861
#	199733
#	210685
#	222444
#	234249
#	253728
#	273116
#	294811
#
# Disc length: 4136 seconds
#
# Revision: 0
# Processed by: cddbd v1.5.2PL0 Copyright (c) Steve Scherf et al.
# Submitted via: EasyCDDAExtractor 11.1.0.1
#
DISCID=28102614
DTITLE=Various Artist - 0529 Love In The Summertime
DYEAR=1900
DGENRE=Soul
TTITLE0=Four tops - Four Tops - Reach Out I'll Be There
TTITLE1=Wayne Fontana  - Wayne Fontana - Came Of Love
TTITLE2=Merseys - Merseys - Sorrow
TTITLE3=Supremes - Supremes - Where Did Our Love Go
TTITLE4=Eddie Holman - Eddie Holman - Lonely Girl
TTITLE5=Heatwave - Heatwave - Always and Forever
TTITLE6=Tymes - Tymes - Youm Little Trustmaker
TTITLE7=Dennis Brown - Dennis Brown - Never Never never
TTITLE8=Mighty Red - Mighty Red - Please Don't Make Me Cry
TTITLE9=Ewin Hawkins Singers - Edwin Hawkins Singers - Oh Happy Day
TTITLE10=Honeylipz - Honelipz - Torn
TTITLE11=Freda Payne - Breda Payne - Band Of Gold
TTITLE12=Dee Harrington - Dee Harrington - I Just Can't Help Believing
TTITLE13=Tams - Tams - Hey Girl Don't Bother Me
TTITLE14=Ben E King - Ben E King - Goodnight My Love
TTITLE15=Jerry Butler - Jerry Butler - Make It Easy On Yourself
TTITLE16=Dionne Warwick - Dionne Warwick - Wht The World Needs Now Is Love
TTITLE17=Paul Flood - Paul Flood - If You're Not The One
TTITLE18=Teddy Pendergrass - Teddy Pendergrass - Love TKO
TTITLE19=Edwin Start with The Supremes - Edwin Starr Wit the Supremes - Privat
TTITLE19=e Number
EXTD=
EXTT0=
EXTT1=
EXTT2=
EXTT3=
EXTT4=
EXTT5=
EXTT6=
EXTT7=
EXTT8=
EXTT9=
EXTT10=
EXTT11=
EXTT12=
EXTT13=
EXTT14=
EXTT15=
EXTT16=
EXTT17=
EXTT18=
EXTT19=
PLAYORDER=
